<?xml version="1.0" standalone="no"?>
<!DOCTYPE svg PUBLIC "-//W3C//DTD SVG 20010904//EN"
 "http://www.w3.org/TR/2001/REC-SVG-20010904/DTD/svg10.dtd">
<svg version="1.0" xmlns="http://www.w3.org/2000/svg"
 width="700.000000pt" height="700.000000pt" viewBox="0 0 700.000000 700.000000"
 preserveAspectRatio="xMidYMid meet">
<metadata>
Created by potrace 1.11, written by Peter Selinger 2001-2013
</metadata>
<g transform="translate(0.000000,700.000000) scale(0.100000,-0.100000)"
fill="#000000" stroke="none">
<path d="M136 6260 c-6 -13 0 -5276 6 -5285 4 -7 216 -9 610 -8 331 0 606 2
609 2 8 1 5 398 -3 406 -4 4 -160 7 -348 6 l-340 -1 0 2235 0 2235 348 0 348
0 0 205 c0 113 -2 206 -5 206 -19 4 -1223 3 -1225 -1z"/>
<path d="M5649 6258 c-1 -5 -2 -98 -2 -208 l-2 -200 348 0 347 0 0 -2234 0
-2235 -297 0 c-164 0 -320 0 -348 -1 l-50 0 1 -198 c0 -109 3 -202 6 -208 5
-7 997 -11 1193 -5 l31 1 0 2645 c0 1455 -3 2646 -6 2646 -25 6 -1220 2 -1221
-3z"/>
<path d="M3060 5953 c-18 -49 -38 -101 -46 -118 -7 -16 -29 -75 -49 -130 -21
-55 -43 -113 -50 -130 -28 -66 -46 -118 -41 -122 3 -3 21 -7 40 -8 l35 -4 27
78 28 78 116 1 c141 1 157 -2 165 -31 4 -12 15 -45 26 -73 19 -49 22 -52 55
-49 19 1 36 4 38 6 2 2 -38 112 -88 244 -51 132 -101 264 -111 293 l-19 52
-47 0 -46 0 -33 -87z m108 -73 c11 -30 33 -89 49 -130 15 -41 27 -77 26 -80
-6 -10 -211 -6 -208 5 21 72 100 274 105 268 4 -5 16 -33 28 -63z"/>
<path d="M3499 6038 c0 -2 -1 -136 -2 -298 l0 -295 184 0 184 0 3 33 c4 37 23
33 -175 34 l-113 0 -1 42 c0 22 0 141 0 264 l-1 222 -39 0 c-21 0 -39 -1 -40
-2z"/>
<path d="M3950 5745 c0 -162 3 -296 8 -296 35 -6 350 -3 358 3 14 10 6 58 -10
59 -6 0 -71 1 -143 1 l-133 1 0 264 0 263 -40 0 -40 0 0 -295z"/>
<path d="M2278 4993 c-2 -5 -4 -100 -4 -213 l1 -205 960 -2 c528 -1 963 -2
968 -2 4 -1 -1 -9 -10 -19 -10 -10 -29 -32 -43 -48 -80 -94 -205 -240 -210
-244 -3 -3 -28 -32 -55 -65 -28 -33 -54 -65 -60 -71 -36 -40 -84 -96 -190
-219 -66 -77 -122 -142 -125 -145 -3 -3 -140 -162 -305 -355 -164 -192 -301
-352 -304 -355 -4 -3 -31 -34 -60 -70 -30 -36 -60 -69 -66 -75 -6 -5 -46 -53
-90 -105 -44 -52 -82 -97 -85 -100 -3 -3 -89 -102 -190 -220 -101 -118 -189
-221 -196 -227 -9 -9 -12 -79 -12 -258 l0 -245 1304 0 1304 0 0 213 0 213
-1000 0 c-550 -1 -1000 2 -1000 5 0 3 8 14 18 25 16 19 114 132 158 184 51 59
299 348 323 375 14 17 78 91 141 165 63 74 117 137 120 140 3 3 30 34 60 69
30 36 62 72 70 81 8 9 24 27 35 41 44 53 227 265 270 313 6 6 35 40 65 76 30
36 57 67 60 70 3 3 127 147 275 320 148 173 274 320 280 326 15 16 98 114 112
133 9 12 12 83 13 259 l0 242 -1264 0 c-696 0 -1266 -3 -1268 -7z"/>
<path d="M1179 4316 c-4 -4 -16 -8 -28 -11 -50 -9 -110 -66 -143 -135 -25 -54
-30 -170 -9 -242 16 -58 69 -122 125 -150 62 -32 184 -31 251 2 42 21 50 30
51 55 2 42 -4 48 -29 25 -32 -30 -112 -51 -166 -44 -110 15 -158 74 -166 201
-7 111 34 198 106 226 75 30 144 19 250 -40 3 -2 6 12 6 32 0 31 -5 37 -45 57
-45 21 -189 38 -203 24z"/>
<path d="M1654 4296 c-91 -42 -144 -137 -144 -255 0 -168 94 -281 238 -287
172 -7 279 118 266 311 -13 198 -189 311 -360 231z m191 -59 c105 -58 125
-279 35 -374 -50 -53 -130 -64 -200 -28 -63 33 -96 121 -88 236 4 57 11 79 34
112 53 76 141 98 219 54z"/>
<path d="M2134 4038 l1 -273 125 1 c145 0 209 17 259 66 54 53 75 112 74 206
-2 129 -36 191 -128 237 -56 28 -68 30 -196 33 l-137 4 2 -274z m291 184 c54
-27 85 -84 89 -159 3 -76 -9 -130 -41 -171 -38 -50 -81 -64 -197 -66 l-69 -1
1 195 c0 107 1 203 1 214 1 17 8 18 89 14 60 -4 100 -12 127 -26z"/>
<path d="M2712 4037 l-1 -273 178 -1 177 -1 0 31 -1 32 -132 0 c-72 0 -135 3
-139 8 -11 11 -10 187 1 188 6 1 64 2 130 3 l120 1 0 30 0 30 -120 2 c-66 0
-124 1 -130 2 -8 1 -11 62 -6 149 1 9 35 12 136 12 l135 0 0 30 0 30 -174 0
-174 0 0 -273z"/>
<path d="M3909 3041 c-4 -15 -5 -527 -2 -536 2 -6 38 -9 86 -8 186 4 242 18
304 76 89 84 88 316 -1 402 -24 23 -87 54 -123 60 -52 10 -263 14 -264 6z
m274 -79 c23 -11 50 -28 60 -40 46 -52 56 -195 19 -269 -22 -42 -65 -74 -117
-87 -30 -8 -155 -10 -162 -2 -6 6 -5 405 1 415 10 15 154 3 199 -17z"/>
<path d="M4539 2855 c-40 -104 -78 -203 -85 -220 -7 -16 -22 -53 -32 -82 -21
-57 -17 -63 33 -54 26 5 32 14 51 71 l21 65 125 2 125 2 24 -70 24 -69 37 0
c21 0 38 2 38 4 0 4 -57 156 -146 391 -60 158 -58 154 -103 152 l-40 -1 -72
-191z m208 -151 c-2 -3 -47 -3 -98 -2 l-94 3 49 134 49 133 49 -132 c28 -72
48 -134 45 -136z"/>
<path d="M4855 3042 c-3 -3 -5 -17 -5 -32 l0 -27 88 1 c48 1 92 0 97 -1 7 -2
10 -87 10 -239 0 -232 2 -253 33 -248 6 1 19 2 27 3 13 1 15 35 15 244 l0 242
94 0 c90 -1 95 0 99 21 2 13 1 27 -2 32 -6 9 -447 13 -456 4z"/>
<path d="M5473 3042 c-5 -4 -53 -119 -105 -257 -53 -137 -99 -257 -102 -266
-6 -13 0 -18 23 -21 17 -2 35 -2 40 2 6 3 21 35 35 70 l24 65 122 2 121 2 18
-42 c10 -24 21 -56 25 -73 6 -25 11 -29 34 -28 15 1 32 3 39 3 13 1 2 35 -116
341 l-79 204 -34 2 c-19 1 -39 -1 -45 -4z m87 -202 c21 -58 42 -113 45 -122 7
-16 -2 -18 -93 -18 l-101 0 18 53 c10 28 30 81 43 117 14 36 29 74 33 85 6 16
8 17 12 5 3 -8 22 -62 43 -120z"/>
<path d="M2413 1611 c-49 -13 -100 -56 -113 -97 -19 -58 -8 -130 26 -165 27
-28 130 -69 175 -69 29 0 97 -37 109 -59 18 -35 12 -79 -18 -112 -24 -27 -36
-32 -92 -36 -61 -5 -110 6 -192 42 -16 6 -18 1 -18 -34 l0 -40 58 -18 c71 -21
203 -21 252 0 73 32 112 96 103 173 -10 91 -61 133 -200 165 -111 26 -133 42
-133 98 0 32 6 44 31 65 17 14 43 27 57 27 63 3 119 -4 164 -21 l48 -18 0 38
c0 39 -5 44 -60 58 -35 8 -167 10 -197 3z"/>
<path d="M2750 1576 l0 -34 68 0 c37 0 84 -1 105 -1 l37 -1 0 -263 0 -263 38
1 37 0 3 263 2 262 23 1 c12 0 59 1 105 1 l82 0 0 34 0 34 -250 0 -250 0 0
-34z"/>
<path d="M3320 1395 c2 -240 9 -283 62 -334 41 -40 88 -55 173 -54 106 0 166
36 201 118 14 33 17 78 19 263 l1 223 -40 -3 -40 -3 -1 -212 c-1 -241 -10
-279 -70 -307 -72 -34 -171 -12 -202 46 -17 32 -22 126 -23 426 l0 52 -40 0
-41 0 1 -215z"/>
<path d="M3929 1588 c0 -29 0 -537 0 -560 1 -16 4 -16 74 -9 5 1 8 11 7 24 -1
12 -2 75 -1 139 l1 117 118 3 117 3 0 30 -1 30 -117 0 -117 0 -1 70 c-1 71 0
97 6 103 2 2 59 5 127 5 l123 2 3 33 3 32 -170 0 c-170 0 -171 0 -172 -22z"/>
<path d="M4399 1603 c-5 -48 -3 -562 3 -574 5 -11 18 -16 40 -15 l33 2 2 119
c1 66 2 130 2 143 1 22 4 22 119 22 l118 0 -1 33 -1 32 -112 1 c-61 0 -114 3
-118 6 -7 8 -8 157 -1 165 4 3 63 6 132 5 l125 0 0 34 0 34 -170 0 c-93 0
-170 -3 -171 -7z"/>
</g>
</svg>
